<?xml version="1.0" encoding="UTF-8" standalone="no"?>
<svg
   viewBox="0 0 6865.6873 564.7578"
   version="1.1"
   id="svg6406"
   sodipodi:docname="gelbe_kurve_versuch.svg"
   width="6865.687"
   height="564.75781"
   xmlns:inkscape="http://www.inkscape.org/namespaces/inkscape"
   xmlns:sodipodi="http://sodipodi.sourceforge.net/DTD/sodipodi-0.dtd"
   xmlns="http://www.w3.org/2000/svg"
   xmlns:svg="http://www.w3.org/2000/svg">
  <sodipodi:namedview
     id="namedview6408"
     pagecolor="#505050"
     bordercolor="#eeeeee"
     borderopacity="1"
     inkscape:showpageshadow="0"
     inkscape:pageopacity="0"
     inkscape:pagecheckerboard="0"
     inkscape:deskcolor="#505050"
     showgrid="false" />
  <defs
     id="defs6276">
    <style
       id="style6244">
      .cls-1 {
        fill: #e6007e;
      }

      .cls-1, .cls-2, .cls-3, .cls-4 {
        stroke-width: 0px;
      }

      .cls-5 {
        stroke: #f6c75d;
        stroke-width: 4px;
      }

      .cls-5, .cls-2 {
        fill: none;
      }

      .cls-6 {
        clip-path: url(#clippath-2);
      }

      .cls-7 {
        clip-path: url(#clippath-6);
      }

      .cls-8 {
        clip-path: url(#clippath-7);
      }

      .cls-9 {
        clip-path: url(#clippath-1);
      }

      .cls-10 {
        clip-path: url(#clippath-4);
      }

      .cls-11 {
        clip-path: url(#clippath-9);
      }

      .cls-12 {
        clip-path: url(#clippath);
      }

      .cls-13 {
        clip-path: url(#clippath-3);
      }

      .cls-14 {
        clip-path: url(#clippath-8);
      }

      .cls-3 {
        fill: #fff;
      }

      .cls-15 {
        clip-path: url(#clippath-5);
      }

      .cls-4 {
        fill: #f6c75d;
      }
    </style>
    <clipPath
       id="clippath">
      <rect
         class="cls-2"
         width="676.65997"
         height="142.94"
         id="rect6246"
         x="0"
         y="0" />
    </clipPath>
    <clipPath
       id="clippath-1">
      <rect
         class="cls-2"
         width="676.65997"
         height="142.94"
         id="rect6249"
         x="0"
         y="0" />
    </clipPath>
    <clipPath
       id="clippath-2">
      <rect
         class="cls-2"
         width="676.65997"
         height="142.94"
         id="rect6252"
         x="0"
         y="0" />
    </clipPath>
    <clipPath
       id="clippath-4">
      <rect
         class="cls-2"
         width="676.65997"
         height="142.94"
         id="rect6258"
         x="0"
         y="0" />
    </clipPath>
    <clipPath
       id="clippath-5">
      <rect
         class="cls-2"
         width="676.65997"
         height="142.94"
         id="rect6261"
         x="0"
         y="0" />
    </clipPath>
    <clipPath
       id="clippath-6">
      <rect
         class="cls-2"
         width="676.65997"
         height="142.94"
         id="rect6264"
         x="0"
         y="0" />
    </clipPath>
    <clipPath
       id="clippath-7">
      <rect
         class="cls-2"
         x="362.29999"
         y="6.3400002"
         width="89.580002"
         height="21.68"
         id="rect6267" />
    </clipPath>
    <clipPath
       id="clippath-9">
      <rect
         class="cls-2"
         x="361.72"
         y="116.95"
         width="91.57"
         height="21.68"
         id="rect6273" />
    </clipPath>
  </defs>
  <g
     id="Ebene_1"
     data-name="Ebene 1"
     style="display:inline"
     transform="translate(-342376.42,-18733.717)">
    <g
       class="cls-12"
       clip-path="url(#clippath)"
       id="g6280"
       style="display:none">
      <path
         class="cls-4"
         d="m 356.34,7.02 c 0,0 28.91,-3.97 57.26,5.24 0,0 13.61,4.96 27.78,-0.57 14.17,-5.53 0.85,12.47 0.85,12.47 L 408.36,27.84 370.8,19.34 356.34,7.01 Z"
         id="path6278" />
    </g>
    <rect
       class="cls-4"
       x="363.70999"
       y="15.67"
       width="23.1"
       height="14.17"
       id="rect6282"
       style="display:none" />
    <g
       class="cls-9"
       clip-path="url(#clippath-1)"
       id="g6286"
       style="display:none">
      <path
         class="cls-4"
         d="m 361.16,137.7 c 0,0 28.91,3.97 57.26,-5.24 0,0 13.61,-4.96 27.78,0.57 14.17,5.53 0.85,-12.47 0.85,-12.47 l -33.87,-3.68 -37.56,8.5 -14.46,12.33 z"
         id="path6284" />
    </g>
    <rect
       class="cls-4"
       x="366.26001"
       y="115.73"
       width="35.720001"
       height="15.59"
       id="rect6288"
       style="display:none" />
    <rect
       class="cls-4"
       x="440.53"
       y="112.61"
       width="44.790001"
       height="14.17"
       id="rect6290"
       style="display:none" />
    <g
       class="cls-6"
       clip-path="url(#clippath-2)"
       id="g6302"
       style="display:none">
      <path
         class="cls-4"
         d="m 472.28,6.71 c 0,0 24.47,-0.91 37.25,3.29 l 0.06,2.27 -11.12,5.44 z"
         id="path6292" />
      <path
         class="cls-4"
         d="m 471.4,137.08 c 0,0 25.79,0.91 39.26,-3.29 l 0.06,-2.27 -11.72,-5.44 z"
         id="path6294" />
      <path
         class="cls-3"
         d="m 505.16,135.18 c 0,0 -11.45,2.38 -22.9,2.04 l 1.64,2.61 16.44,3.12 9.64,-2.89 z"
         id="path6296" />
      <path
         class="cls-4"
         d="m 473.41,137.56 c 0,0 16.72,0.43 23.81,-0.99 7.09,-1.42 8.5,-3.76 8.5,-3.76 l -23.17,-1.49 z"
         id="path6298" />
      <path
         class="cls-4"
         d="m 596.8,137.42 c 0,0 36,-5.34 36.99,-6.83 0.99,-1.48 -4.82,-5.79 -4.82,-5.79 l -36,3.41 3.68,8.9"
         id="path6300" />
    </g>
    <polygon
       class="cls-3"
       points="597.09,138.04 599.04,137.5 598.93,137.1 595.9,137.47 "
       id="polygon6304"
       style="display:none" />
    <rect
       class="cls-1"
       y="16.82"
       width="371.92999"
       height="109.68"
       id="rect6314"
       x="0"
       style="display:inline" />
    <rect
       class="cls-4"
       x="430.14999"
       y="16.82"
       width="246.50999"
       height="110.25"
       id="rect6316"
       style="display:inline" />
    <g
       class="cls-10"
       clip-path="url(#clippath-4)"
       id="g6334">
      <path
         class="cls-1"
         d="m 0.04,13.8 c 0,0 31.1,-6.62 40.27,-6.62 9.17,0 24.65,-0.71 41.53,5.16 16.88,5.86 38.01,0.37 38.01,0.37 0,0 26.72,-8.12 43.05,-5.52 l -0.48,6.26 -5.55,3.67 -35.26,4.63 H 23.45 L 5.49,21.93 0.38,21.75 0,14.29"
         id="path6318" />
      <path
         class="cls-1"
         d="m 317.67,13.8 c 0,0 -31.11,-6.62 -40.27,-6.62 -9.16,0 -24.65,-0.71 -41.53,5.16 -16.88,5.86 -38.01,0.37 -38.01,0.37 0,0 -26.72,-8.12 -43.05,-5.52 l 0.48,6.26 5.55,3.67 35.26,4.63 h 98.16 l 17.96,0.18 5.12,-0.18 0.37,-7.44"
         id="path6320" />
      <path
         class="cls-4"
         d="m 317.2,13.8 c 0,0 31.1,-6.62 40.27,-6.62 9.17,0 24.65,-0.71 41.53,5.16 16.88,5.86 38.01,0.37 38.01,0.37 0,0 26.72,-8.12 43.05,-5.52 l -0.48,6.26 -5.55,3.67 -35.26,4.63 h -98.16 l -17.96,0.18 -5.12,-0.18 -0.37,-7.44"
         id="path6322" />
      <path
         class="cls-4"
         d="m 637.42,13.8 c 0,0 -31.11,-6.62 -40.27,-6.62 -9.16,0 -24.65,-0.71 -41.53,5.16 -16.88,5.86 -38.01,0.37 -38.01,0.37 0,0 -26.72,-8.12 -43.05,-5.52 l 0.48,6.26 5.55,3.67 35.26,4.63 h 98.16 l 17.96,0.18 5.12,-0.18 0.37,-7.44"
         id="path6324" />
      <path
         class="cls-4"
         d="m 636.09,13.87 c 0,0 34.12,-8.62 40.56,-6.97 v 14.48 l -10.39,2.08 -13.92,0.18 z"
         id="path6326" />
      <path
         class="cls-1"
         d="m 317.41,130.2 c 0,0 -31.11,6.62 -40.27,6.62 -9.16,0 -24.65,0.71 -41.53,-5.16 -16.88,-5.86 -38.01,-0.37 -38.01,-0.37 0,0 -26.72,8.11 -43.05,5.52 l 0.48,-6.26 5.55,-3.67 35.26,-4.63 H 294 l 17.96,-0.18 5.12,0.18 0.37,7.44"
         id="path6328" />
      <path
         class="cls-1"
         d="m 0.04,130.2 c 0,0 31.1,6.62 40.27,6.62 9.17,0 24.65,0.71 41.53,-5.16 16.88,-5.86 38.01,-0.37 38.01,-0.37 0,0 26.72,8.11 43.05,5.52 l -0.48,-6.26 -5.55,-3.67 -35.26,-4.63 H 23.45 L 5.49,122.07 0.38,122.25 0,129.71"
         id="path6330" />
      <path
         class="cls-4"
         d="m 316.42,130.46 c 0,0 31.1,6.62 40.27,6.62 9.17,0 24.65,0.71 41.53,-5.16 16.88,-5.86 38.01,-0.37 38.01,-0.37 0,0 26.72,8.11 43.05,5.52 l -0.48,-6.26 -5.55,-3.67 -35.26,-4.63 h -98.16 l -17.96,-0.18 -5.12,0.18 -0.37,7.44"
         id="path6332" />
    </g>
    <rect
       class="cls-4"
       x="365.85999"
       y="18.82"
       width="73.790001"
       height="105.68"
       id="rect6336" />
    <rect
       class="cls-5"
       x="365.85999"
       y="18.82"
       width="73.790001"
       height="105.68"
       id="rect6338" />
    <g
       class="cls-15"
       clip-path="url(#clippath-5)"
       id="g6344">
      <path
         class="cls-4"
         d="m 635.03,130.22 c 0,0 -32,6.62 -41.43,6.62 -9.43,0 -25.36,0.71 -42.72,-5.16 -17.36,-5.86 -39.11,-0.37 -39.11,-0.37 0,0 -27.49,8.11 -44.29,5.52 l 0.49,-6.26 5.71,-3.67 36.28,-4.63 h 100.99 l 18.48,-0.18 5.26,0.18 0.38,7.44"
         id="path6340" />
      <path
         class="cls-4"
         d="m 625.5,17.24 c 0,0 34.12,-8.62 40.56,-6.97 v 14.48 l -10.39,2.08 -13.92,0.18 z"
         id="path6342" />
    </g>
    <rect
       class="cls-1"
       x="151.39999"
       y="9.4300003"
       width="19.84"
       height="14.11"
       id="rect6346" />
    <rect
       class="cls-1"
       x="147.99001"
       y="115.85"
       width="19.84"
       height="14.11"
       id="rect6348" />
    <g
       class="cls-7"
       clip-path="url(#clippath-6)"
       id="g6366">
      <path
         class="cls-4"
         d="m 636.09,131.87 c 0,0 34.12,8.62 40.56,6.97 v -14.48 l -10.39,-2.08 -13.92,-0.18 z"
         id="path6350" />
      <path
         class="cls-4"
         d="m 625.77,129.32 c 0,0 34.12,8.62 40.56,6.97 v -14.48 l -10.39,-2.08 -13.92,-0.18 z"
         id="path6352" />
      <path
         class="cls-1"
         d="m 316.42,13.79 c 0,0 36.16,-7.36 46.81,-7.36 10.65,0 28.66,-0.79 48.27,5.73 19.62,6.52 44.19,0.41 44.19,0.41 0,0 30.41504,-5.9327182 49.40504,-3.0527182 L 505.17,13.39 l -6.45,4.07 -40.99,5.15 H 343.62 l -20.88,0.2 -5.94,-0.2 -0.43,-8.27"
         id="path6354"
         sodipodi:nodetypes="cscccccccccc" />
      <path
         class="cls-4"
         d="m 534.9,15.45 c 0,0 -34.38,-8.35 -44.5,-8.35 -10.12,0 -27.24,-0.89 -45.89,6.5 -18.65,7.39 -42.01,0.46 -42.01,0.46 0,0 -29.52,-10.23 -47.57,-6.96 l 0.53,7.89 6.13,4.62 38.97,5.84 h 108.48 l 19.85,0.23 5.65,-0.23 0.41,-9.38"
         id="path6356" />
      <path
         class="cls-1"
         d="m 315.28,130.28 c 0,0 36.16,7.36 46.81,7.36 10.65,0 28.66,0.79 48.27,-5.73 19.62,-6.52 44.19,-0.41 44.19,-0.41 0,0 32.23685,6.43165 51.22685,3.55165 L 504.03,130.68 l -6.45,-4.07 -40.99,-5.15 H 342.48 l -20.88,-0.2 -5.94,0.2 -0.43,8.27"
         id="path6358"
         sodipodi:nodetypes="cscccccccccc" />
      <path
         class="cls-4"
         d="m 435.18,130.57 c 0,0 31.1,6.62 40.27,6.62 9.17,0 24.65,0.71 41.53,-5.16 16.88,-5.86 38.01,-0.37 38.01,-0.37 0,0 26.72,8.11 43.05,5.52 l -0.48,-6.26 -5.55,-3.67 -35.26,-4.63 h -98.16 l -17.96,-0.18 -5.12,0.18 -0.37,7.44"
         id="path6360" />
      <path
         class="cls-4"
         d="m 362.05,137.33 7.44,-0.3 0.18,-4.09 -0.18,-14.37 V 40.03 L 364.86,11.82 361.19,7.38 354.93,7 c -2.59,13.07 5.52,34.44 5.52,34.44 0,0 5.5,16.91 -0.37,30.41 -5.87,13.5 -5.16,25.89 -5.16,33.23 0,7.34 6.62,32.22 6.62,32.22 l 0.16,0.48 1.52,-0.07 0.02,-1.24 -1.54,0.75"
         id="path6362" />
      <path
         class="cls-4"
         d="m 361.56,6.48 c 0,0 1.16,-0.11 1.73,-0.06 0.57,0.06 -0.4,0.94 -0.4,0.94 z"
         id="path6364" />
    </g>
    <g
       class="cls-8"
       clip-path="url(#clippath-7)"
       id="g6370">
      <path
         class="cls-4"
         d="m 362.3,7.19 c 0,0 28.29,-3.97 56.02,5.24 0,0 13.31,4.96 27.18,-0.57 13.87,-5.53 0.83,12.47 0.83,12.47 L 413.19,28.01 376.44,19.51 362.3,7.18 Z"
         id="path6368" />
    </g>
    <g
       class="cls-11"
       clip-path="url(#clippath-9)"
       id="g6378">
      <path
         class="cls-4"
         d="m 361.72,137.79 c 0,0 28.91,3.97 57.26,-5.24 0,0 13.61,-4.96 27.78,0.57 14.17,5.53 0.85,-12.47 0.85,-12.47 l -33.87,-3.68 -37.56,8.5 -14.46,12.33 z"
         id="path6376" />
    </g>
    <rect
       class="cls-4"
       x="362.89001"
       y="97.220001"
       width="44.869999"
       height="33.779999"
       id="rect6380" />
    <rect
       class="cls-4"
       x="436.89001"
       y="90.220001"
       width="44.869999"
       height="33.779999"
       id="rect6382" />
  </g>
  <g
     id="Ebene_2"
     data-name="Ebene 2"
     style="display:none"
     transform="translate(-342376.42,-18733.717)">
    <path
       class="cls-4"
       d="m 481.35,137.61 c 0,0 20.22,-0.89 27.58,-3.22 7.36,-2.33 -7.46,-7.16 -7.46,-7.16 l -21.17,2.83 z"
       id="path6385" />
  </g>
  <g
     id="Ebene_3"
     data-name="Ebene 3"
     style="display:none"
     transform="translate(-342376.42,-18733.717)">
    <path
       class="cls-3"
       d="m 484.42,137.61 c 0,0 16.43,-1.07 20.65,-2.31 l 1.23,1.76 v 1 l -11,1 z"
       id="path6388" />
  </g>
  <g
     id="Ebene_4"
     data-name="Ebene 4"
     style="display:none"
     transform="translate(-342376.42,-18733.717)">
    <path
       class="cls-4"
       d="m 485.04,137.57 c 0,0 16.66,-0.84 20.52,-2.02 0.22,-0.07 0.41,-0.14 0.54,-0.21 2.4,-1.28 0.47,-2.55 0.47,-2.55 l -19.25,-0.73 z"
       id="path6391" />
  </g>
  <g
     id="Ebene_5"
     data-name="Ebene 5"
     style="display:inline"
     transform="translate(-342376.42,-18733.717)">
    <path
       class="cls-4"
       d="m 505.98,135.01101 c 0,0 9.92,-2.41101 10.12,-2.68101 0.2,-0.27 -0.8,-1.27 -0.8,-1.27 l -9,2 z"
       id="path6394"
       sodipodi:nodetypes="csccc"
       inkscape:export-filename="alt_banner.svg"
       inkscape:export-xdpi="96"
       inkscape:export-ydpi="96" />
    <rect
       class="cls-4"
       x="366.29999"
       y="15.06"
       width="34"
       height="25"
       id="rect6396" />
    <path
       class="cls-4"
       d="m 361.18,6.48 c 0,0 10.04,-0.58 14.08,0 4.04,0.58 2.04,3.58 2.04,3.58 l -10,2 z"
       id="path6398" />
  </g>
</svg>
