<?xml version="1.0" encoding="UTF-8"?>
<svg id="Ebene_1" data-name="Ebene 1" xmlns="http://www.w3.org/2000/svg" version="1.1" xmlns:xlink="http://www.w3.org/1999/xlink" viewBox="0 0 77.28 79.89">
  <defs>
    <style>
      .cls-1 {
        fill: none;
      }

      .cls-1, .cls-2 {
        stroke-width: 0px;
      }

      .cls-3 {
        clip-path: url(#clippath);
      }

      .cls-2 {
        fill: #1d1d1b;
      }
    </style>
    <clipPath id="clippath">
      <rect class="cls-1" x="13.76" y="25.05" width="49.61" height="43.81"/>
    </clipPath>
  </defs>
  <g class="cls-3">
    <path class="cls-2" d="M31.32,68.86c-.31-.05-.62-.08-.93-.14-.98-.19-1.87-.58-2.69-1.1-1.23-.77-2.23-1.76-3.11-2.86-.8-.99-1.45-2.06-2.03-3.17-.28-.53-.6-1.05-.91-1.56-.57-.94-1.03-1.93-1.54-2.9-.16-.31-.36-.6-.54-.91-.53-.89-.88-1.84-.99-2.85-.34-2.87.45-5.45,2.39-7.71,1.05-1.22,2.36-2.13,3.94-2.67,1.42-.49,2.89-.76,4.41-.76,1.2,0,2.35.2,3.43.73,1.44.7,2.34,1.81,2.8,3.25.29.91.36,1.85.29,2.8-.08,1.05-.21,2.09-.33,3.13-.1.88-.23,1.75-.33,2.62-.07.63.08,1.23.34,1.8.22.49.51.95.73,1.45.63,1.42,1.26,2.84,1.54,4.37.16.84.2,1.68,0,2.52-.24,1.06-.84,1.91-1.76,2.56-1.12.8-2.39,1.28-3.79,1.4-.03,0-.07.01-.1.02h-.8Z"/>
    <path class="cls-2" d="M44.24,25.05c.21.04.42.07.63.12,1.01.26,1.68.88,2.08,1.76.62,1.38.59,2.77-.11,4.12-.47.91-1.28,1.37-2.34,1.47-.57.06-1.05-.09-1.48-.42-.97-.73-1.61-1.66-1.89-2.8-.11-.45-.05-.91.01-1.36.09-.6.26-1.18.59-1.7.41-.65,1-1.07,1.81-1.17.02,0,.05-.01.07-.02h.62Z"/>
    <path class="cls-2" d="M13.76,48.27s.03-.1.05-.15c.11-.41.4-.67.83-.74,1.26-.23,2.27.21,2.87,1.24.3.51.03,1.13-.57,1.37-.38.16-.78.16-1.18.1-.62-.09-1.18-.32-1.62-.76-.2-.2-.3-.44-.37-.69v-.36Z"/>
    <path class="cls-2" d="M63.36,39.28c-.05.13-.08.26-.14.39-.14.29-.38.5-.66.67-.62.37-1.3.53-2.03.42-.43-.06-.75-.28-.95-.65-.13-.25-.14-.5,0-.74.45-.82,1.14-1.31,2.14-1.37.28-.02.57-.01.84.07.42.12.68.39.77.8,0,.04.02.08.04.13v.29Z"/>
    <path class="cls-2" d="M58.63,42.98c0,1.34-.35,2.72-1.14,3.99-.42.67-.74,1.37-1.12,2.06-.49.89-1,1.78-1.5,2.67-.31.56-.62,1.13-.94,1.68-.94,1.59-2.08,3.04-3.57,4.23-.99.79-2.09,1.41-3.36,1.72-1.59.39-3.12.19-4.6-.47-.86-.38-1.63-.88-2.22-1.6-.58-.7-.87-1.5-.95-2.38-.1-1.09.13-2.15.45-3.19.27-.86.61-1.71.99-2.53.27-.58.57-1.15.85-1.73.29-.6.49-1.23.44-1.9-.04-.48-.12-.95-.18-1.43-.17-1.47-.42-2.93-.5-4.41-.05-1.02,0-2.03.35-3.01.59-1.67,1.76-2.81,3.54-3.4,1.12-.37,2.28-.46,3.46-.37,1.05.08,2.07.28,3.07.57,1.41.4,2.63,1.1,3.68,2.06,1.66,1.51,2.65,3.36,3.07,5.48.12.6.17,1.21.18,1.95"/>
    <path class="cls-2" d="M29.74,38.18c0-.88.22-1.7.73-2.45.82-1.21,2.28-1.52,3.38-1.27.77.17,1.28.65,1.62,1.28.45.83.61,1.73.55,2.65-.03.47-.22.9-.44,1.31-.32.59-.74,1.11-1.26,1.57-.61.53-1.31.71-2.13.52-1.11-.25-1.78-.93-2.15-1.9-.2-.53-.29-1.1-.29-1.71"/>
    <path class="cls-2" d="M53.45,29.44c-.04.81-.22,1.5-.68,2.1-.49.65-1.33.94-2.15.76-.21-.05-.39-.15-.55-.29-.71-.66-1.13-1.46-1.12-2.41.01-.74.3-1.42.82-2,.53-.58,1.24-.74,2.05-.48.87.28,1.35.87,1.53,1.69.05.23.07.46.09.62"/>
    <path class="cls-2" d="M26.06,36.34c.55,0,1.01.26,1.36.7.46.58.71,1.24.74,1.95.02.55-.18,1.06-.47,1.54-.12.21-.27.4-.43.59-.38.47-.9.61-1.5.54-.63-.07-1.12-.35-1.46-.85-.62-.92-.8-1.91-.47-2.95.33-1.02,1.23-1.5,2.23-1.52"/>
    <path class="cls-2" d="M58.61,31.78c-.02.73-.26,1.38-.74,1.93-.58.67-1.32.86-2.2.64-.28-.07-.51-.21-.68-.42-.54-.66-.84-1.42-.71-2.25.13-.78.56-1.43,1.28-1.87.54-.32,1.11-.28,1.68-.05.93.39,1.34,1.09,1.36,2.01"/>
    <path class="cls-2" d="M22.86,41.35c-.03.59-.21,1.14-.53,1.65-.32.5-.79.73-1.39.76-.67.03-1.22-.19-1.64-.67-.69-.79-.97-1.69-.68-2.69.27-.92,1.34-1.59,2.33-1.46.28.04.54.14.76.31.66.5,1.06,1.15,1.16,1.95,0,.05,0,.11,0,.16"/>
    <path class="cls-2" d="M19.38,45.76c0,.63-.5,1.09-1.21,1.13-.46.02-.87-.12-1.26-.35-.71-.4-1.26-.94-1.56-1.67-.2-.49-.2-.97.12-1.43.34-.5.84-.7,1.45-.53,1.28.36,2.13,1.12,2.39,2.38.03.15.05.31.07.47"/>
    <path class="cls-2" d="M57.75,36.42c.08-1,.48-1.84,1.42-2.4.31-.19.63-.35.99-.44,1.02-.25,1.57.41,1.71,1.02.08.35.03.69-.12,1.01-.45.93-1.19,1.57-2.23,1.89-.51.15-.98.06-1.41-.26-.28-.21-.36-.49-.35-.81"/>
  </g>
</svg>