<?xml version="1.0" encoding="UTF-8"?>
<svg id="Ebene_1" data-name="Ebene 1" xmlns="http://www.w3.org/2000/svg" xmlns:xlink="http://www.w3.org/1999/xlink" viewBox="0 0 103.94 103.94">
  <defs>
    <style>
      .cls-1 {
        fill: #875280;
      }

      .cls-1, .cls-2, .cls-3 {
        stroke-width: 0px;
      }

      .cls-2 {
        fill: none;
      }

      .cls-4 {
        clip-path: url(#clippath);
      }

      .cls-3 {
        fill: #fff;
      }
    </style>
    <clipPath id="clippath">
      <rect class="cls-2" x="0" width="103.94" height="103.94"/>
    </clipPath>
  </defs>
  <g class="cls-4">
    <path class="cls-1" d="M51.97,103.94c28.7,0,51.97-23.27,51.97-51.97S80.67,0,51.97,0,0,23.27,0,51.97s23.27,51.97,51.97,51.97"/>
    <path class="cls-3" d="M74.83,69.35c-.63-.64-1.23-1.25-1.83-1.86-1.64-1.67-3.27-3.34-4.91-5.02-.7-.71-1.4-1.42-2.09-2.14-.06-.06-.1-.16-.11-.25-.15-1.79-.29-3.58-.44-5.37-.15-1.78-.32-3.55-.48-5.32-.16-1.75-.33-3.5-.5-5.25,0-.01,0-.03-.06-.05-.45,4.43-.9,8.86-1.35,13.34-.24-.21-.44-.39-.63-.57-2-1.89-4.01-3.78-6-5.69-.4-.38-.77-.81-1.14-1.23-.1-.12-.17-.3-.18-.46-.24-2.68-.47-5.37-.7-8.05-.09-1-.17-2-.26-2.99,0-.05,0-.1-.07-.15-.43,3.09-.86,6.18-1.3,9.34-3.2-2.66-6.37-5.29-9.54-7.92-.01.01-.02.02-.03.04,2.65,3.13,5.29,6.27,7.97,9.44-3.41.44-6.77.87-10.13,1.3,0,.01,0,.02,0,.03.08.01.16.02.23.03,2.27.16,4.54.31,6.81.47,1.78.12,3.57.24,5.35.38.13,0,.28.12.38.23,1.04,1.12,2.08,2.25,3.11,3.39,1.17,1.29,2.33,2.59,3.5,3.88.07.08.14.16.25.29-4.54.42-9.04.84-13.53,1.26,0,.01,0,.03,0,.04.88.09,1.75.18,2.63.27,1.77.17,3.53.35,5.3.52,2.21.22,4.42.43,6.63.64.6.06,1.21.1,1.81.16.09,0,.19.06.25.12,1.54,1.46,3.08,2.92,4.62,4.38,1.92,1.83,3.84,3.66,5.77,5.48,2.21,2.09,4.43,4.16,6.65,6.24.24.23.5.45.74.69.46.46.63,1.01.44,1.63-.2.63-.65,1-1.31,1.1-.51.08-.97-.07-1.33-.44-.88-.93-1.76-1.87-2.63-2.8-2.03-2.18-4.07-4.35-6.1-6.53-.12-.12-.22-.11-.36-.08-2.07.56-4.14,1.14-6.22,1.65-2.15.53-4.33.87-6.55.87-3.41,0-6.5-1.01-9.33-2.87-1.97-1.3-3.7-2.86-5.33-4.55-2.09-2.19-3.95-4.56-5.66-7.04-2.13-3.08-4.01-6.29-5.66-9.65-2.01-4.1-3.67-8.33-4.78-12.76-.69-2.74-1.15-5.52-1.22-8.35-.05-2.04.11-4.06.6-6.05.05-.21.15-.29.36-.34,1.59-.36,3.2-.54,4.83-.57,3.07-.06,6.09.37,9.07,1.06,4.5,1.05,8.8,2.67,12.97,4.65,4.28,2.03,8.35,4.42,12.17,7.22,2.71,1.98,5.26,4.14,7.5,6.65,1.52,1.7,2.84,3.54,3.77,5.63.81,1.8,1.25,3.69,1.34,5.66.11,2.4-.23,4.75-.8,7.07-.51,2.09-1.1,4.16-1.67,6.23-.27.98-.55,1.95-.84,2.97"/>
  </g>
</svg>