<?xml version="1.0" encoding="UTF-8"?>
<svg id="Ebene_1" data-name="Ebene 1" xmlns="http://www.w3.org/2000/svg" xmlns:xlink="http://www.w3.org/1999/xlink" viewBox="0 0 103.94 103.94">
  <defs>
    <style>
      .cls-1 {
        fill: #875280;
      }

      .cls-1, .cls-2, .cls-3 {
        stroke-width: 0px;
      }

      .cls-2 {
        fill: none;
      }

      .cls-4 {
        clip-path: url(#clippath);
      }

      .cls-3 {
        fill: #fff;
      }
    </style>
    <clipPath id="clippath">
      <rect class="cls-2" x="0" width="103.94" height="103.94"/>
    </clipPath>
  </defs>
  <g class="cls-4">
    <path class="cls-1" d="M51.97,103.94c28.7,0,51.97-23.27,51.97-51.97S80.67,0,51.97,0,0,23.27,0,51.97s23.27,51.97,51.97,51.97"/>
    <path class="cls-3" d="M45.33,58.92c-.6-.62-1-1.32-1.11-2.16-.18-1.31.23-2.41,1.18-3.34,3.35-3.28,6.7-6.55,10.03-9.85,3.2-3.18,6.54-6.19,10.19-8.87,3.43-2.52,7-4.83,10.84-6.72.7-.35,1.45-.61,2.17-.9,2.11-.84,4.39.78,4.74,2.79.24,1.36-.16,2.52-1.15,3.49-6.61,6.49-13.22,12.98-19.83,19.47-9.22,9.05-18.44,18.1-27.66,27.16-1.09,1.07-2.4,1.42-3.87,1.01-1.42-.4-2.33-1.36-2.66-2.79-.31-1.36.08-2.55,1.08-3.54,3.88-3.81,7.76-7.62,11.64-11.43,1.46-1.43,2.91-2.87,4.4-4.34"/>
    <path class="cls-3" d="M49.03,45.86c-1.78,1.76-3.54,3.49-5.33,5.25-.09-.09-.2-.18-.29-.28-1.22-1.19-2.44-2.39-3.65-3.59-.19-.19-.36-.23-.62-.19-2.46.35-4.62-.28-6.39-2-3.96-3.84-7.88-7.72-11.81-11.59-.56-.55-.58-1.32-.06-1.83.52-.5,1.3-.47,1.86.08,3.5,3.44,7,6.88,10.5,10.31.11.11.22.22.34.32.36.3.8.29,1.1-.01.29-.3.31-.75-.01-1.08-.6-.61-1.22-1.21-1.83-1.81-2.94-2.89-5.89-5.78-8.83-8.67-.07-.07-.15-.15-.22-.22-.5-.53-.51-1.25-.03-1.74.5-.51,1.25-.53,1.8-.02.77.72,1.51,1.47,2.26,2.21,2.82,2.77,5.64,5.54,8.46,8.32.08.08.17.17.26.24.32.24.72.23,1.01-.03.29-.26.34-.69.1-1.02-.08-.1-.17-.19-.26-.28-3.53-3.47-7.05-6.93-10.58-10.4-.53-.52-.64-1.06-.34-1.6.42-.74,1.39-.86,2.04-.23,1.72,1.68,3.44,3.37,5.16,5.05,1.87,1.83,3.73,3.66,5.6,5.5.35.34.69.42,1.02.25.32-.16.51-.51.39-.84-.08-.22-.25-.42-.42-.59-2.35-2.31-4.7-4.61-7.05-6.92-1.18-1.16-2.36-2.31-3.54-3.47-.6-.59-.63-1.33-.1-1.85.52-.51,1.31-.48,1.89.09,3.93,3.86,7.87,7.69,11.77,11.58,1.92,1.91,2.51,4.23,1.91,6.84-.05.23,0,.38.16.54,1.16,1.12,2.31,2.26,3.46,3.39.1.1.2.2.28.29"/>
    <path class="cls-3" d="M55.86,63.17c1.82-1.79,3.6-3.55,5.41-5.32.05.04.12.1.19.16,5.51,5.41,11.03,10.82,16.53,16.24,1.5,1.48,1.64,3.65.35,5.18-1.44,1.71-4.06,1.83-5.69.23-4.4-4.31-8.8-8.63-13.2-12.95-1.2-1.17-2.39-2.35-3.59-3.53"/>
  </g>
</svg>