<?xml version="1.0" encoding="UTF-8"?>
<svg xmlns="http://www.w3.org/2000/svg" version="1.1" xmlns:xlink="http://www.w3.org/1999/xlink" viewBox="0 0 730.9 595.3">
  <defs>
    <style>
      .cls-1 {
        clip-path: url(#clippath-20);
      }

      .cls-2 {
        clip-path: url(#clippath-11);
      }

      .cls-3 {
        clip-path: url(#clippath-16);
      }

      .cls-4 {
        fill: #000;
      }

      .cls-4, .cls-5, .cls-6, .cls-7, .cls-8, .cls-9 {
        stroke-width: 0px;
      }

      .cls-5 {
        fill: #f6c75d;
      }

      .cls-10 {
        clip-path: url(#clippath-2);
      }

      .cls-11 {
        clip-path: url(#clippath-13);
      }

      .cls-12 {
        isolation: isolate;
      }

      .cls-13 {
        clip-path: url(#clippath-15);
      }

      .cls-14 {
        clip-path: url(#clippath-6);
      }

      .cls-6, .cls-15 {
        fill: none;
      }

      .cls-16 {
        clip-path: url(#clippath-7);
      }

      .cls-17 {
        clip-path: url(#clippath-21);
      }

      .cls-7 {
        fill: #e6007e;
      }

      .cls-18 {
        clip-path: url(#clippath-1);
      }

      .cls-19 {
        clip-path: url(#clippath-4);
      }

      .cls-20 {
        clip-path: url(#clippath-12);
      }

      .cls-21 {
        clip-path: url(#clippath-9);
      }

      .cls-22 {
        clip-path: url(#clippath);
      }

      .cls-23 {
        clip-path: url(#clippath-19);
      }

      .cls-24 {
        clip-path: url(#clippath-3);
      }

      .cls-8 {
        fill: #020202;
      }

      .cls-25 {
        clip-path: url(#clippath-8);
      }

      .cls-9 {
        fill: #fff;
      }

      .cls-26 {
        clip-path: url(#clippath-18);
      }

      .cls-27 {
        clip-path: url(#clippath-14);
      }

      .cls-28 {
        clip-path: url(#clippath-17);
      }

      .cls-29 {
        clip-path: url(#clippath-5);
      }

      .cls-30 {
        clip-path: url(#clippath-10);
      }

      .cls-15 {
        stroke: #f6c75d;
        stroke-width: 4px;
      }
    </style>
    <clipPath id="clippath">
      <rect class="cls-6" x="54.7" y="226" width="676.4" height="179"/>
    </clipPath>
    <clipPath id="clippath-1">
      <rect class="cls-6" x="54.7" y="226" width="676.4" height="179"/>
    </clipPath>
    <clipPath id="clippath-2">
      <rect class="cls-6" x="54.7" y="226" width="676.4" height="179"/>
    </clipPath>
    <clipPath id="clippath-3">
      <rect class="cls-6" x="54.7" y="266" width="643.3" height="139"/>
    </clipPath>
    <clipPath id="clippath-4">
      <rect class="cls-6" x="54.7" y="226" width="676.4" height="179"/>
    </clipPath>
    <clipPath id="clippath-5">
      <rect class="cls-6" x="-13" y="226" width="744.1" height="179"/>
    </clipPath>
    <clipPath id="clippath-6">
      <rect class="cls-6" x="-10" y="226" width="741.1" height="179"/>
    </clipPath>
    <clipPath id="clippath-7">
      <rect class="cls-6" x="416.9" y="233.9" width="89.5" height="27.1"/>
    </clipPath>
    <clipPath id="clippath-8">
      <rect class="cls-6" x="416.3" y="372.4" width="91.5" height="27.1"/>
    </clipPath>
    <clipPath id="clippath-9">
      <rect class="cls-6" x="291.6" y="396.6" width="150.5" height="43.1"/>
    </clipPath>
    <clipPath id="clippath-10">
      <rect class="cls-6" x="291.3" y="396.2" width="150.8" height="44.1"/>
    </clipPath>
    <clipPath id="clippath-11">
      <rect class="cls-6" x="140.7" y="397.6" width="151.4" height="43.1"/>
    </clipPath>
    <clipPath id="clippath-12">
      <rect class="cls-6" x="140.7" y="397.6" width="151.5" height="43.5"/>
    </clipPath>
    <clipPath id="clippath-13">
      <rect class="cls-6" x="442" y="396.6" width="151.5" height="43.1"/>
    </clipPath>
    <clipPath id="clippath-14">
      <rect class="cls-6" x="441.7" y="396.3" width="151.8" height="44.1"/>
    </clipPath>
    <clipPath id="clippath-15">
      <rect class="cls-6" x="593.5" y="397.6" width="137.5" height="43.1"/>
    </clipPath>
    <clipPath id="clippath-16">
      <rect class="cls-6" x="593.2" y="397.1" width="138.5" height="44.1"/>
    </clipPath>
    <clipPath id="clippath-17">
      <rect class="cls-6" x="136" y="391.3" width="594.6" height="55"/>
    </clipPath>
    <clipPath id="clippath-18">
      <rect class="cls-6" x="687.8" y="390.5" width="43" height="9.3"/>
    </clipPath>
    <clipPath id="clippath-19">
      <rect class="cls-6" x="683.8" y="433.1" width="48.2" height="20.6"/>
    </clipPath>
    <clipPath id="clippath-20">
      <rect class="cls-6" x="-.2" y="399.9" width="141.2" height="40.5"/>
    </clipPath>
    <clipPath id="clippath-21">
      <rect class="cls-6" x="-.5" y="399.4" width="141.5" height="41.4"/>
    </clipPath>
  </defs>
  <g id="Ebene_1" data-name="Ebene 1">
    <g id="Ebene_1-2" data-name="Ebene 1">
      <g class="cls-22">
        <path class="cls-5" d="M410.9,234.8s28.9-5,57.2,6.6c0,0,13.6,6.2,27.8-.7,14.2-6.9.9,15.6.9,15.6l-33.9,4.6-37.5-10.6-14.5-15.4h0Z"/>
      </g>
      <rect class="cls-5" x="418.2" y="245.6" width="23.1" height="17.8"/>
      <g class="cls-18">
        <path class="cls-5" d="M415.7,398.4s28.9,5,57.2-6.6c0,0,13.6-6.2,27.8.7,14.2,6.9.9-15.6.9-15.6l-33.9-4.6-37.5,10.6-14.5,15.4h0Z"/>
      </g>
      <rect class="cls-5" x="420.8" y="370.9" width="35.7" height="19.5"/>
      <rect class="cls-5" x="495" y="367" width="44.8" height="17.8"/>
      <g class="cls-10">
        <g>
          <path class="cls-5" d="M526.8,234.4s24.5-1.1,37.2,4.1v2.8c0,0-11,6.8-11,6.8l-26.2-13.8h0Z"/>
          <path class="cls-7" d="M558.5,244.2"/>
          <path class="cls-5" d="M525.9,397.6s25.8,1.1,39.2-4.1v-2.8c0,0-11.7-6.8-11.7-6.8l-27.6,13.8h0Z"/>
          <path class="cls-7" d="M559,395.4"/>
          <path class="cls-9" d="M559.6,395.3s-11.5,3-22.9,2.6l1.6,3.3,16.4,3.9,9.6-3.6-4.8-6.1h0Z"/>
          <path class="cls-5" d="M527.9,398.3s16.7.5,23.8-1.2,8.5-4.7,8.5-4.7l-23.2-1.9-9.1,7.8h0Z"/>
          <path class="cls-5" d="M651.2,398.1s36-6.7,37-8.5c1-1.9-4.8-7.2-4.8-7.2l-36,4.3,3.7,11.1"/>
        </g>
      </g>
      <polygon class="cls-9" points="650.3 398.1 651.5 398.9 653.5 398.2 653.4 397.7 650.3 398.1"/>
      <g class="cls-24">
        <g>
          <path class="cls-9" d="M514.6,272.5s16.7.7,21.5,2.3c4.8,1.5,1.6-3.1,1.6-3.1l-8.9-2.3-12.1,1-2.1,2.1h0Z"/>
          <path class="cls-7" d="M526.7,273.3"/>
          <path class="cls-9" d="M526.8,273.3s6,.6,8.8,1.4,1.2-1.1,1.2-1.1l-1.8-1.2-8.1.9h0Z"/>
          <path class="cls-7" d="M535.5,270.1"/>
          <path class="cls-9" d="M530.3,273.7s5,.9,5.2,1,.7-.5.7-.5l-2.8-1.1-3.1.6Z"/>
        </g>
      </g>
      <rect class="cls-8" x="-9" y="247.1" width="435.5" height="137.3"/>
      <rect class="cls-5" x="484.7" y="247.1" width="246.4" height="138.1"/>
      <g class="cls-19">
        <g>
          <path class="cls-8" d="M21.7,243.3s31.1-8.3,40.2-8.3,24.6-.9,41.5,6.5c16.9,7.3,38,.5,38,.5,0,0,26.7-10.2,43-6.9l-.5,7.8-5.6,4.6-35.2,5.8H45.1l-18,.2-5.1-.2-.4-9.3"/>
          <path class="cls-8" d="M331.2,243.3s-31.1-8.3-40.2-8.3-24.6-.9-41.5,6.5c-15.7,6.9-36.5,1-38,.5,0,0-26.7-10.2-43-6.9l.5,7.8,5.6,4.6,35.2,5.8h98.1l18,.2,5.1-.2.4-9.3"/>
          <path class="cls-5" d="M371.8,242.3s31.1-8.3,40.2-8.3,24.6-.9,41.5,6.5c16.9,7.3,38,.5,38,.5,0,0,26.7-10.2,43-6.9l-.5,7.8-5.5,4.6-35.2,5.8h-98.1l-18,.2-5.1-.2-.4-9.3"/>
          <path class="cls-5" d="M691.8,243.3s-31.1-8.3-40.2-8.3-24.6-.9-41.5,6.5c-16.9,7.3-38,.5-38,.5,0,0-26.7-10.2-43-6.9l.5,7.8,5.5,4.6,35.2,5.8h98.1l18,.2,5.1-.2.4-9.3"/>
          <path class="cls-5" d="M690.5,243.4s34.1-10.8,40.5-8.7v18.1l-10.4,2.6-13.9.2-16.2-12.2h0Z"/>
          <path class="cls-9" d="M372,389s-31.1,8.3-40.2,8.3-24.6.9-41.5-6.5c-16.9-7.3-38-.5-38-.5,0,0-26.7,10.2-43,6.9l.5-7.8,5.6-4.6,35.2-5.8h98.1l18-.2,5.1.2.4,9.3"/>
          <path class="cls-9" d="M54.7,389s31.1,8.3,40.3,8.3,24.6.9,41.5-6.5c16.9-7.3,38-.5,38-.5,0,0,26.7,10.2,43,6.9l-.5-7.8-5.6-4.6-35.2-5.8h-98.1l-18-.2-5.1.2-.4,9.3"/>
          <path class="cls-5" d="M371,389.4s31.1,8.3,40.2,8.3,24.6.9,41.5-6.5c16.9-7.3,38-.5,38-.5,0,0,26.7,10.2,43,6.9l-.5-7.8-5.5-4.6-35.2-5.8h-98.1l-18-.2-5.1.2-.4,9.3"/>
        </g>
      </g>
      <rect class="cls-5" x="420.4" y="249.6" width="73.8" height="132.3"/>
      <rect class="cls-15" x="420.4" y="249.6" width="73.8" height="132.3"/>
      <g class="cls-29">
        <g>
          <path class="cls-5" d="M689.5,389.1s-32,8.3-41.4,8.3-25.3.9-42.7-6.5c-17.4-7.3-39.1-.5-39.1-.5,0,0-27.5,10.2-44.3,6.9l.5-7.8,5.7-4.6,36.3-5.8h101l18.5-.2,5.3.2.4,9.3"/>
          <path class="cls-5" d="M679.9,247.6s34.1-10.8,40.5-8.7v18.1l-10.4,2.6-13.9.2-16.2-12.2h0Z"/>
        </g>
      </g>
      <rect class="cls-9" x="202.6" y="371.1" width="19.8" height="17.7"/>
      <g class="cls-14">
        <g>
          <path class="cls-5" d="M690.5,391.1s34.1,10.8,40.5,8.7v-18.1l-10.4-2.6-13.9-.2-16.2,12.2h0Z"/>
          <path class="cls-5" d="M680.2,387.9s34.1,10.8,40.5,8.7v-18.1l-10.4-2.6-13.9-.2-16.2,12.2h0Z"/>
          <path class="cls-5" d="M589.4,245.3s-34.4-10.4-44.5-10.4-27.2-1.1-45.9,8.1-42,.6-42,.6c0,0-29.5-12.8-47.5-8.7l.5,9.9,6.1,5.8,39,7.3h108.4l19.8.3,5.7-.3.4-11.7"/>
          <path class="cls-9" d="M369.9,389.1s36.1,9.2,46.8,9.2,28.6,1,48.2-7.2,44.2-.5,44.2-.5c0,0,31,11.3,50,7.7l-.6-8.7-6.5-5.1-41-6.5h-114.1l-20.9-.3-5.9.3-.4,10.4"/>
          <path class="cls-5" d="M489.7,389.5s31.1,8.3,40.2,8.3,24.6.9,41.5-6.5c16.9-7.3,38-.5,38-.5,0,0,26.7,10.2,43,6.9l-.5-7.8-5.5-4.6-35.2-5.8h-98.1l-18-.2-5.1.2-.4,9.3"/>
          <path class="cls-5" d="M416.6,398l7.4-.4.2-5.1-.2-18v-98.4l-4.6-35.3-3.7-5.6-6.2-.5c-2.6,16.4,5.5,43.1,5.5,43.1,0,0,5.5,21.2-.4,38.1-5.9,16.9-5.2,32.4-5.2,41.6s6.6,40.4,6.6,40.4l.2.6h1.5c0,0,0-1.6,0-1.6l-1.5.9"/>
          <path class="cls-5" d="M416.1,234.1s1.2-.1,1.7,0c.6,0-.4,1.2-.4,1.2l-1.3-1.1h0Z"/>
        </g>
      </g>
      <g class="cls-16">
        <path class="cls-5" d="M416.9,235s28.3-5,56,6.6c0,0,13.3,6.2,27.2-.7,13.9-6.9.8,15.6.8,15.6l-33.1,4.6-36.7-10.6-14.1-15.4h0Z"/>
      </g>
      <g class="cls-25">
        <path class="cls-5" d="M416.3,398.5s28.9,5,57.2-6.6c0,0,13.6-6.2,27.8.7,14.2,6.9.9-15.6.9-15.6l-33.9-4.6-37.5,10.6-14.5,15.4h0Z"/>
      </g>
      <rect class="cls-5" x="417.4" y="347.7" width="44.9" height="42.3"/>
      <rect class="cls-5" x="491.4" y="339" width="44.9" height="42.3"/>
      <g class="cls-21">
        <g class="cls-30">
          <image class="cls-12" width="472" height="139" transform="translate(291.9 396.2) scale(.3)" xlink:href="gelbe kurve finalee-1.png"/>
        </g>
      </g>
      <g class="cls-2">
        <g class="cls-20">
          <image class="cls-12" width="473" height="136" transform="translate(140.9 396.6) scale(.3)" xlink:href="gelbe kurve finalee-2.png"/>
        </g>
      </g>
      <g class="cls-11">
        <g class="cls-27">
          <image class="cls-12" width="472" height="139" transform="translate(442.2 396.3) scale(.3)" xlink:href="gelbe kurve finalee-3.png"/>
        </g>
      </g>
      <g class="cls-13">
        <g class="cls-3">
          <image class="cls-12" width="431" height="136" transform="translate(593.2 397.4) scale(.3)" xlink:href="gelbe kurve finalee-4.png"/>
        </g>
      </g>
      <g class="cls-28">
        <g>
          <path class="cls-9" d="M136,439.2s27.3-5.8,35.3-5.8,21.6-.6,36.4,4.5c14.8,5.1,33.4.3,33.4.3,0,0,23.4-7.1,37.8-4.8l-.4,5.5-4.9,3.2-30.9,4h-86.1l-15.8.2-4.5-.2-.3-6.5"/>
          <path class="cls-9" d="M414.9,439.2s-27.3-5.8-35.4-5.8-21.7-.6-36.5,4.5c-14.8,5.1-33.4.3-33.4.3,0,0-23.5-7.1-37.8-4.8l.4,5.5,4.9,3.2,31,4h86.3l15.8.2,4.5-.2.3-6.5"/>
          <path class="cls-9" d="M414.5,439.2s27.3-5.8,35.4-5.8,21.7-.6,36.5,4.5c14.8,5.1,33.4.3,33.4.3,0,0,23.5-7.1,37.8-4.8l-.4,5.5-4.9,3.2-31,4h-86.3l-15.8.2-4.5-.2-.3-6.5"/>
          <path class="cls-9" d="M695.9,439.2s-27.3-5.8-35.4-5.8-21.7-.6-36.5,4.5c-14.8,5.1-33.4.3-33.4.3,0,0-23.5-7.1-37.8-4.8l.4,5.5,4.9,3.2,31,4h86.3l15.8.2,4.5-.2.3-6.5"/>
          <path class="cls-9" d="M439.9,399.4s-27.3,5.8-35.4,5.8-21.7.6-36.5-4.5c-14.8-5.1-33.4-.3-33.4-.3,0,0-23.5,7.1-37.8,4.8l.4-5.5,4.9-3.2,31-4h86.3l15.8-.2,4.5.2.3,6.5"/>
          <path class="cls-9" d="M162,399.4s27.3,5.8,35.4,5.8,21.7.6,36.5-4.5c14.8-5.1,33.4-.3,33.4-.3,0,0,23.5,7.1,37.8,4.8l-.4-5.5-4.9-3.2-31-4h-86.3l-15.8-.2-4.5.2-.3,6.5"/>
          <path class="cls-5" d="M415,398.6s27.3,5.8,35.4,5.8,21.7.6,36.5-4.5c14.8-5.1,33.4-.3,33.4-.3,0,0,23.5,7.1,37.8,4.8l-.4-5.5-4.9-3.2-31-4h-86.3l-15.8-.2-4.5.2-.3,6.5"/>
          <path class="cls-5" d="M696.1,399.6s-27.3,5.8-35.4,5.8-21.7.6-36.5-4.5c-14.8-5.1-33.4-.3-33.4-.3,0,0-23.5,7.1-37.8,4.8l.4-5.5,4.9-3.2,31-4h86.3l15.8-.2,4.5.2.3,6.5"/>
        </g>
      </g>
      <g class="cls-26">
        <path class="cls-5" d="M694.1,399.8s14.5-5.7,36.7,0v-8.5h-26.1l-16.9-.8,6.3,9.3Z"/>
      </g>
      <g class="cls-23">
        <path class="cls-9" d="M683.8,441.8s40.6-10.5,48.2-8.5v17.6l-12.4,2.5-16.6.2-19.3-11.9Z"/>
      </g>
      <path class="cls-5" d="M696.4,399.6s22.7-4.2,34.6.2v-3.1l-17.3-1.9-13.4-3-4.2,5.8.3,2h0Z"/>
      <rect class="cls-5" x="415" y="383" width="277" height="14"/>
      <rect class="cls-5" x="532" y="387" width="36" height="14"/>
      <path class="cls-9" d="M2.6,459.9s27.1,5.8,35.1,5.8,21.5.6,36.2-4.5c14.7-5.1,33.1-.3,33.1-.3,0,0,23.3,7.1,37.5,4.8l-.4-5.5-4.8-3.2-30.7-4H23l-15.7-.2-4.5.2-.3,6.5"/>
      <path class="cls-9" d="M-10.3,437.3s27.1-5.8,35-5.8,21.5-.6,36.1,4.5c14.7,5.1,33.1.3,33.1.3,0,0,23.2-7.1,37.5-4.8l-.4,5.5-4.8,3.2-30.7,4H10l-15.6.2-4.4-.2-.3-6.5"/>
      <path class="cls-9" d="M3.7,347.9s27.1,5.8,35.1,5.8,21.5.6,36.2-4.5c14.7-5.1,33.1-.3,33.1-.3,0,0,23.3,7.1,37.5,4.8l-.4-5.5-4.8-3.2-30.7-4H24.1l-15.7-.2-4.5.2-.3,6.5"/>
      <g class="cls-1">
        <g class="cls-17">
          <image class="cls-12" width="471" height="137" transform="translate(-.5 399.5) scale(.3)" xlink:href="gelbe kurve finalee-5.png"/>
        </g>
      </g>
      <path class="cls-8" d="M247.3,244.6s31.1-8.3,40.2-8.3,24.6-.9,41.5,6.5c16.9,7.3,38,.5,38,.5,0,0,26.7-10.2,43-6.9l-.5,7.8-5.5,4.6-35.2,5.8h-98.1l-17.9.2-5.1-.2-.4-9.3"/>
      <path class="cls-4" d="M-90.7,244.1s31.1-8.3,40.2-8.3,24.6-.9,41.5,6.5c16.9,7.3,38,.5,38,.5,0,0,26.7-10.2,43-6.9l-.5,7.8-5.6,4.6-35.2,5.8h-98.1l-17.9.2-5.1-.2-.4-9.3"/>
    </g>
    <g id="Ebene_2" data-name="Ebene 2">
      <path class="cls-5" d="M535.8,398.3s20.2-1.1,27.6-4c7.4-2.9-7.5-9-7.5-9l-21.2,3.5,1,9.5Z"/>
    </g>
    <g id="Ebene_3" data-name="Ebene 3">
      <path class="cls-9" d="M538.9,398.3s16.4-1.3,20.7-2.9l1.2,2.2v1.2l-11,1.2-10.9-1.8h0Z"/>
    </g>
    <g id="Ebene_4" data-name="Ebene 4">
      <path class="cls-5" d="M539.5,398.3s16.7-1.1,20.5-2.5c.2,0,.4-.2.5-.3,2.4-1.6.5-3.2.5-3.2l-19.2-.9-2.3,6.9h0Z"/>
      <path class="cls-5" d="M560.3,395.6"/>
      <path class="cls-5" d="M551.3,235.5"/>
    </g>
    <g id="Ebene_5" data-name="Ebene 5">
      <path class="cls-5" d="M560.5,395.5s9.9-3.5,10.1-3.8-.8-1.6-.8-1.6l-9,2.5-.3,2.9Z"/>
      <rect class="cls-5" x="420.8" y="244.9" width="34" height="31.3"/>
      <path class="cls-5" d="M415.7,234.1s10-.7,14.1,0,2,4.5,2,4.5l-10,2.5-6.1-7h0Z"/>
      <path class="cls-5" d="M535.7,234.3s15.1.3,24.6,2.9-1.5,3.9-1.5,3.9l-10,1.2-13-6.3v-1.8q0,0,0,0Z"/>
      <path class="cls-9" d="M560.1,237.2"/>
    </g>
    <g id="Ebene_6" data-name="Ebene 6">
      <rect class="cls-5" x="536" y="394" width="29" height="7"/>
      <path class="cls-5" d="M410,236.3s-.8,7-.4,7.9,1.4.8,1.4.8v-7l-.3-1.7-.5-.3-.3.3Z"/>
      <path class="cls-5" d="M415,392.6"/>
      <path class="cls-9" d="M422.2,402s-3.6-5.4-4.4-10.5-7.8,3.9-7.8,3.9l1.3,3.2,3.7,2.2,7.2,1.2h0Z"/>
      <rect class="cls-9" x="367" y="386" width="25" height="11"/>
    </g>
    <g id="Ebene_7" data-name="Ebene 7">
      <path class="cls-9" d="M230.1,401.9s-27.7,5.6-35.8,5.6-21.9.5-36.9-4.5c-15-5.1-33.8-.4-33.8-.4,0,0-23.8,6.9-38.3,4.6l.4-5.4,4.9-3.1,31.4-3.9,87.3.2h16c0-.1,4.6,0,4.6,0l.3,6.4"/>
      <path class="cls-9" d="M36.7,440.7s27-6.1,35-6.2,21.5-.9,36.3,4c14.8,4.9,33.1-.1,33.1-.1,0,0,23.2-7.4,37.5-5.3l-.4,5.5-4.8,3.3-30.7,4.4-85.6,1.1-15.7.4h-4.5c0-.1-.4-6.6-.4-6.6"/>
      <path class="cls-9" d="M114.6,440.1s-27.1-5.8-35.1-5.8-21.5-.6-36.2,4.5c-14.7,5.1-33.1.3-33.1.3,0,0-23.3-7.1-37.5-4.8l.4,5.5,4.8,3.2,30.7,4h85.6l15.7.2,4.5-.2.3-6.5"/>
      <path class="cls-9" d="M126.9,401.8s-27.7,5.7-35.8,5.7-21.9.6-36.9-4.4-33.8-.3-33.8-.3c0,0-23.8,7-38.3,4.8l.4-5.4,4.9-3.2,31.4-4h87.3l16-.2,4.6.2.3,6.4"/>
      <path class="cls-4" d="M409.6,252.2s-.4-4.3.5-18.3c0,0-11.3,1.4-12.7,2.2s-5.4,5.8-5.4,5.8l-19.1,12.8,18.1,5.2,16-2,2.6-5.8Z"/>
      <path class="cls-5" d="M415,392.6s2.5,9.1,4.2,10.8c0,0,10.5-1.7,11.1-2s-3.9-9.3-3.9-9.3l-11.5-3-.7.2.7,3.4h0Z"/>
    </g>
  </g>
  <g id="Ebene_2-2" data-name="Ebene 2">
    <path class="cls-4" d="M730.8,14.1H-1l-2.7,250.9s12.7,3.3,32.7-3.4c0,0,33.3-13.8,67.3-1.4,0,0,19.5,10.6,45.7.2,0,0,28.9-14.5,65.7,1.7,0,0,23,6.3,38.7-.8,0,0,35.1-16.2,81.9,2.8,0,0,17.8,6.9,48.3-4.9,0,0,50.7-14.2,93.3,2.9,0,0,17.9,9.5,43.7-7,0,0,32.9-16.1,76.4,3.3,0,0,22.7,8.9,49.5-7.4,0,0,37.4-14.4,71.8,2.8,0,0,14.9,8.1,20.9,4.5s-1.5-244.3-1.5-244.3Z"/>
  </g>
</svg>