<?xml version="1.0" encoding="UTF-8"?>
<svg xmlns="http://www.w3.org/2000/svg" xmlns:xlink="http://www.w3.org/1999/xlink" viewBox="0 0 676.66 142.94">
  <defs>
    <style>
      .cls-1 {
        fill: #e6007e;
      }

      .cls-1, .cls-2, .cls-3, .cls-4 {
        stroke-width: 0px;
      }

      .cls-5 {
        stroke: #f6c75d;
        stroke-width: 4px;
      }

      .cls-5, .cls-2 {
        fill: none;
      }

      .cls-6 {
        clip-path: url(#clippath-2);
      }

      .cls-7 {
        clip-path: url(#clippath-6);
      }

      .cls-8 {
        clip-path: url(#clippath-7);
      }

      .cls-9 {
        clip-path: url(#clippath-1);
      }

      .cls-10 {
        clip-path: url(#clippath-4);
      }

      .cls-11 {
        clip-path: url(#clippath-9);
      }

      .cls-12 {
        clip-path: url(#clippath);
      }

      .cls-13 {
        clip-path: url(#clippath-3);
      }

      .cls-14 {
        clip-path: url(#clippath-8);
      }

      .cls-3 {
        fill: #fff;
      }

      .cls-15 {
        clip-path: url(#clippath-5);
      }

      .cls-4 {
        fill: #f6c75d;
      }
    </style>
    <clipPath id="clippath">
      <rect class="cls-2" width="676.66" height="142.94"/>
    </clipPath>
    <clipPath id="clippath-1">
      <rect class="cls-2" width="676.66" height="142.94"/>
    </clipPath>
    <clipPath id="clippath-2">
      <rect class="cls-2" width="676.66" height="142.94"/>
    </clipPath>
    <clipPath id="clippath-3">
      <rect class="cls-2" width="676.66" height="142.94"/>
    </clipPath>
    <clipPath id="clippath-4">
      <rect class="cls-2" width="676.66" height="142.94"/>
    </clipPath>
    <clipPath id="clippath-5">
      <rect class="cls-2" width="676.66" height="142.94"/>
    </clipPath>
    <clipPath id="clippath-6">
      <rect class="cls-2" width="676.66" height="142.94"/>
    </clipPath>
    <clipPath id="clippath-7">
      <rect class="cls-2" x="362.3" y="6.34" width="89.58" height="21.68"/>
    </clipPath>
    <clipPath id="clippath-8">
      <rect class="cls-2" x="481.46" y="2.75" width="25.45" height="5.93"/>
    </clipPath>
    <clipPath id="clippath-9">
      <rect class="cls-2" x="361.72" y="116.95" width="91.57" height="21.68"/>
    </clipPath>
  </defs>
  <g id="Ebene_1" data-name="Ebene 1">
    <g class="cls-12">
      <path class="cls-4" d="M356.34,7.02s28.91-3.97,57.26,5.24c0,0,13.61,4.96,27.78-.57,14.17-5.53.85,12.47.85,12.47l-33.87,3.68-37.56-8.5-14.46-12.33Z"/>
    </g>
    <rect class="cls-4" x="363.71" y="15.67" width="23.1" height="14.17"/>
    <g class="cls-9">
      <path class="cls-4" d="M361.16,137.7s28.91,3.97,57.26-5.24c0,0,13.61-4.96,27.78.57,14.17,5.53.85-12.47.85-12.47l-33.87-3.68-37.56,8.5-14.46,12.33Z"/>
    </g>
    <rect class="cls-4" x="366.26" y="115.73" width="35.72" height="15.59"/>
    <rect class="cls-4" x="440.53" y="112.61" width="44.79" height="14.17"/>
    <g class="cls-6">
      <path class="cls-4" d="M472.28,6.71s24.47-.91,37.25,3.29l.06,2.27-11.12,5.44-26.19-11Z"/>
      <path class="cls-4" d="M471.4,137.08s25.79.91,39.26-3.29l.06-2.27-11.72-5.44-27.6,11Z"/>
      <path class="cls-3" d="M505.16,135.18s-11.45,2.38-22.9,2.04l1.64,2.61,16.44,3.12,9.64-2.89-4.82-4.88Z"/>
      <path class="cls-4" d="M473.41,137.56s16.72.43,23.81-.99c7.09-1.42,8.5-3.76,8.5-3.76l-23.17-1.49-9.14,6.24Z"/>
      <path class="cls-4" d="M596.8,137.42s36-5.34,36.99-6.83c.99-1.48-4.82-5.79-4.82-5.79l-36,3.41,3.68,8.9"/>
    </g>
    <polygon class="cls-3" points="595.9 137.47 597.09 138.04 599.04 137.5 598.93 137.1 595.9 137.47"/>
    <g class="cls-13">
      <path class="cls-3" d="M483.73,6.65s17.54.74,22.64,2.32c5.1,1.59,1.72-3.23,1.72-3.23l-9.36-2.38-12.74,1.08-2.25,2.21Z"/>
      <path class="cls-3" d="M496.6,7.51s6.26.66,9.21,1.46c2.95.8,1.22-1.18,1.22-1.18l-1.87-1.23-8.56.95Z"/>
      <path class="cls-3" d="M500.23,7.93s5.22.94,5.47,1.02c.26.09.74-.54.74-.54l-2.98-1.13-3.23.65Z"/>
    </g>
    <rect class="cls-1" y="16.82" width="371.93" height="109.68"/>
    <rect class="cls-4" x="430.15" y="16.82" width="246.51" height="110.25"/>
    <g class="cls-10">
      <path class="cls-1" d="M.04,13.8s31.1-6.62,40.27-6.62,24.65-.71,41.53,5.16c16.88,5.86,38.01.37,38.01.37,0,0,26.72-8.12,43.05-5.52l-.48,6.26-5.55,3.67-35.26,4.63H23.45l-17.96.18-5.11-.18L0,14.29"/>
      <path class="cls-1" d="M317.67,13.8s-31.11-6.62-40.27-6.62-24.65-.71-41.53,5.16c-16.88,5.86-38.01.37-38.01.37,0,0-26.72-8.12-43.05-5.52l.48,6.26,5.55,3.67,35.26,4.63h98.16l17.96.18,5.12-.18.37-7.44"/>
      <path class="cls-4" d="M317.2,13.8s31.1-6.62,40.27-6.62,24.65-.71,41.53,5.16c16.88,5.86,38.01.37,38.01.37,0,0,26.72-8.12,43.05-5.52l-.48,6.26-5.55,3.67-35.26,4.63h-98.16l-17.96.18-5.12-.18-.37-7.44"/>
      <path class="cls-4" d="M637.42,13.8s-31.11-6.62-40.27-6.62-24.65-.71-41.53,5.16c-16.88,5.86-38.01.37-38.01.37,0,0-26.72-8.12-43.05-5.52l.48,6.26,5.55,3.67,35.26,4.63h98.16l17.96.18,5.12-.18.37-7.44"/>
      <path class="cls-4" d="M636.09,13.87s34.12-8.62,40.56-6.97v14.48l-10.39,2.08-13.92.18-16.25-9.77Z"/>
      <path class="cls-1" d="M317.41,130.2s-31.11,6.62-40.27,6.62-24.65.71-41.53-5.16c-16.88-5.86-38.01-.37-38.01-.37,0,0-26.72,8.11-43.05,5.52l.48-6.26,5.55-3.67,35.26-4.63h98.16l17.96-.18,5.12.18.37,7.44"/>
      <path class="cls-1" d="M.04,130.2s31.1,6.62,40.27,6.62,24.65.71,41.53-5.16c16.88-5.86,38.01-.37,38.01-.37,0,0,26.72,8.11,43.05,5.52l-.48-6.26-5.55-3.67-35.26-4.63H23.45l-17.96-.18-5.11.18L0,129.71"/>
      <path class="cls-4" d="M316.42,130.46s31.1,6.62,40.27,6.62,24.65.71,41.53-5.16c16.88-5.86,38.01-.37,38.01-.37,0,0,26.72,8.11,43.05,5.52l-.48-6.26-5.55-3.67-35.26-4.63h-98.16l-17.96-.18-5.12.18-.37,7.44"/>
    </g>
    <rect class="cls-4" x="365.86" y="18.82" width="73.79" height="105.68"/>
    <rect class="cls-5" x="365.86" y="18.82" width="73.79" height="105.68"/>
    <g class="cls-15">
      <path class="cls-4" d="M635.03,130.22s-32,6.62-41.43,6.62-25.36.71-42.72-5.16c-17.36-5.86-39.11-.37-39.11-.37,0,0-27.49,8.11-44.29,5.52l.49-6.26,5.71-3.67,36.28-4.63h100.99l18.48-.18,5.26.18.38,7.44"/>
      <path class="cls-4" d="M625.5,17.24s34.12-8.62,40.56-6.97v14.48l-10.39,2.08-13.92.18-16.25-9.77Z"/>
    </g>
    <rect class="cls-1" x="151.4" y="9.43" width="19.84" height="14.11"/>
    <rect class="cls-1" x="147.99" y="115.85" width="19.84" height="14.11"/>
    <g class="cls-7">
      <path class="cls-4" d="M636.09,131.87s34.12,8.62,40.56,6.97v-14.48l-10.39-2.08-13.92-.18-16.25,9.77Z"/>
      <path class="cls-4" d="M625.77,129.32s34.12,8.62,40.56,6.97v-14.48l-10.39-2.08-13.92-.18-16.25,9.77Z"/>
      <path class="cls-1" d="M316.42,13.79s36.16-7.36,46.81-7.36,28.66-.79,48.27,5.73c19.62,6.52,44.19.41,44.19.41,0,0,31.05-9.02,50.04-6.14l-.56,6.96-6.45,4.07-40.99,5.15h-114.11l-20.88.2-5.94-.2-.43-8.27"/>
      <path class="cls-4" d="M534.9,15.45s-34.38-8.35-44.5-8.35-27.24-.89-45.89,6.5c-18.65,7.39-42.01.46-42.01.46,0,0-29.52-10.23-47.57-6.96l.53,7.89,6.13,4.62,38.97,5.84h108.48l19.85.23,5.65-.23.41-9.38"/>
      <path class="cls-1" d="M315.28,130.28s36.16,7.36,46.81,7.36,28.66.79,48.27-5.73c19.62-6.52,44.19-.41,44.19-.41,0,0,31.05,9.02,50.04,6.14l-.56-6.96-6.45-4.07-40.99-5.15h-114.11l-20.88-.2-5.94.2-.43,8.27"/>
      <path class="cls-4" d="M435.18,130.57s31.1,6.62,40.27,6.62,24.65.71,41.53-5.16c16.88-5.86,38.01-.37,38.01-.37,0,0,26.72,8.11,43.05,5.52l-.48-6.26-5.55-3.67-35.26-4.63h-98.16l-17.96-.18-5.12.18-.37,7.44"/>
      <path class="cls-4" d="M362.05,137.33l7.44-.3.18-4.09-.18-14.37V40.03l-4.63-28.21-3.67-4.44-6.26-.38c-2.59,13.07,5.52,34.44,5.52,34.44,0,0,5.5,16.91-.37,30.41-5.87,13.5-5.16,25.89-5.16,33.23s6.62,32.22,6.62,32.22l.16.48,1.52-.07.02-1.24-1.54.75"/>
      <path class="cls-4" d="M361.56,6.48s1.16-.11,1.73-.06c.57.06-.4.94-.4.94l-1.33-.88Z"/>
    </g>
    <g class="cls-8">
      <path class="cls-4" d="M362.3,7.19s28.29-3.97,56.02,5.24c0,0,13.31,4.96,27.18-.57,13.87-5.53.83,12.47.83,12.47l-33.14,3.68-36.75-8.5-14.14-12.33Z"/>
    </g>
    <g class="cls-14">
      <path class="cls-3" d="M481.46,6.04s17.54.74,22.64,2.32c5.1,1.59,1.72-3.23,1.72-3.23l-9.36-2.38-12.74,1.08-2.25,2.21Z"/>
    </g>
    <g class="cls-11">
      <path class="cls-4" d="M361.72,137.79s28.91,3.97,57.26-5.24c0,0,13.61-4.96,27.78.57,14.17,5.53.85-12.47.85-12.47l-33.87-3.68-37.56,8.5-14.46,12.33Z"/>
    </g>
    <rect class="cls-4" x="362.89" y="97.22" width="44.87" height="33.78"/>
    <rect class="cls-4" x="436.89" y="90.22" width="44.87" height="33.78"/>
  </g>
  <g id="Ebene_2" data-name="Ebene 2">
    <path class="cls-4" d="M481.35,137.61s20.22-.89,27.58-3.22-7.46-7.16-7.46-7.16l-21.17,2.83,1.05,7.55Z"/>
  </g>
  <g id="Ebene_3" data-name="Ebene 3">
    <path class="cls-3" d="M484.42,137.61s16.43-1.07,20.65-2.31l1.23,1.76v1l-11,1-10.88-1.45Z"/>
  </g>
  <g id="Ebene_4" data-name="Ebene 4">
    <path class="cls-4" d="M485.04,137.57s16.66-.84,20.52-2.02c.22-.07.41-.14.54-.21,2.4-1.28.47-2.55.47-2.55l-19.25-.73-2.28,5.51Z"/>
  </g>
  <g id="Ebene_5" data-name="Ebene 5">
    <path class="cls-4" d="M505.98,135.4s9.92-2.8,10.12-3.07-.8-1.27-.8-1.27l-9,2-.32,2.34Z"/>
    <rect class="cls-4" x="366.3" y="15.06" width="34" height="25"/>
    <path class="cls-4" d="M361.18,6.48s10.04-.58,14.08,0,2.04,3.58,2.04,3.58l-10,2-6.12-5.58Z"/>
    <path class="cls-4" d="M481.2,6.65s15.12.24,24.61,2.32-1.51,3.08-1.51,3.08l-10,1-13-5-.1-1.41Z"/>
  </g>
  <g id="Ebene_6" data-name="Ebene 6">
    <path class="cls-3" d="M483.3,6.67s21.61,1.16,23.35,2.28l.65-.89-3.26-2-9.77-2-10.98,2.61Z"/>
  </g>
</svg>