<?xml version="1.0" encoding="UTF-8"?>
<svg id="Ebene_1" data-name="Ebene 1" xmlns="http://www.w3.org/2000/svg" xmlns:xlink="http://www.w3.org/1999/xlink" viewBox="0 0 103.94 103.94">
  <defs>
    <style>
      .cls-1 {
        fill: #875280;
      }

      .cls-1, .cls-2, .cls-3 {
        stroke-width: 0px;
      }

      .cls-2 {
        fill: none;
      }

      .cls-4 {
        clip-path: url(#clippath);
      }

      .cls-3 {
        fill: #fff;
      }
    </style>
    <clipPath id="clippath">
      <rect class="cls-2" x="0" width="103.94" height="103.94"/>
    </clipPath>
  </defs>
  <g class="cls-4">
    <path class="cls-1" d="M51.97,103.94c28.7,0,51.97-23.27,51.97-51.97S80.67,0,51.97,0,0,23.27,0,51.97s23.27,51.97,51.97,51.97"/>
    <path class="cls-3" d="M49.26,41.87c-.05-3.23-2.46-5.92-5.66-6.47-.66-.11-1.33-.17-1.99-.3-.6-.12-1.18-.35-1.3-1.03-.05-.29-.01-.65.12-.91.21-.42.47-.84.8-1.17,2.8-2.77,5.61-5.52,8.44-8.26,1.36-1.32,2.98-1.29,4.39.06,1.17,1.11,2.31,2.25,3.46,3.38,1.5,1.46,2.99,2.93,4.5,4.37.67.64,1.39,1.21,2.35,1.4,1.3.26,2.6-.31,3.09-1.52.29-.71.42-1.49.54-2.26.37-2.36,2.01-4.25,4.25-4.81,1.36-.34,2.72-.23,3.95.42,1.87.99,3.3,2.41,3.74,4.52.62,2.98-1.01,5.58-4,6.46-.76.22-1.56.29-2.33.45-1.24.26-2.19.88-2.49,2.16-.22.96.04,1.87.68,2.59.94,1.06,1.96,2.07,2.97,3.07,1.89,1.87,3.8,3.72,5.69,5.58.89.87,1.35,1.89.88,3.1-.17.45-.49.89-.84,1.23-2.75,2.72-5.52,5.44-8.31,8.13-.4.39-.92.71-1.44.93-.73.31-1.38.03-1.66-.7-.18-.48-.27-1.01-.33-1.52-.18-1.52-.62-2.93-1.65-4.11-1.96-2.24-4.94-2.95-7.74-1.85-2.73,1.07-4.46,3.02-5.12,5.79-.93,3.88,1.86,7.29,5.45,7.91.68.12,1.38.17,2.06.31.59.12,1.15.36,1.26,1.02.05.29.01.65-.12.91-.22.43-.48.86-.83,1.2-2.79,2.76-5.6,5.5-8.41,8.23-1.35,1.31-2.97,1.3-4.33,0-2.47-2.38-4.91-4.79-7.38-7.18-.5-.49-1.02-.96-1.58-1.38-1.35-1.01-3.07-.91-4.08.2-.51.56-.74,1.26-.83,1.99-.14,1.12-.37,2.2-.96,3.19-1.89,3.18-6.02,3.55-8.66,1.34-1.1-.92-2.03-1.98-2.41-3.39-.84-3.12.93-6.03,4.18-6.86.69-.18,1.42-.23,2.12-.38,1.24-.27,2.18-.9,2.47-2.19.21-.91-.04-1.76-.62-2.47-.54-.68-1.15-1.31-1.77-1.92-2.28-2.25-4.57-4.48-6.86-6.71-.59-.58-1.07-1.23-1.15-2.07-.09-.97.33-1.74,1.02-2.41,1.51-1.48,3.03-2.96,4.54-4.44,1.27-1.24,2.52-2.49,3.81-3.7.4-.37.89-.67,1.39-.89.76-.32,1.43-.01,1.7.76.16.47.25.97.3,1.46.22,1.97.93,3.7,2.56,4.97,2.21,1.72,4.61,1.93,7.17.85,2.56-1.08,4.08-3.01,4.79-5.6.05-.2.09-.4.11-.61.04-.34.06-.68.07-.88"/>
  </g>
</svg>